<mxfile host="app.diagrams.net" modified="2022-03-03T07:58:02.790Z" agent="5.0 (Windows NT 10.0; Win64; x64) AppleWebKit/537.36 (KHTML, like Gecko) Chrome/98.0.4758.102 Safari/537.36" etag="SCSnPq-DDyYvO5hMHUSb" version="16.6.4" type="github">
  <diagram id="G1QupU5i-QBYeOIOgGJC" name="Page-1">
    <mxGraphModel dx="2010" dy="761" grid="1" gridSize="10" guides="1" tooltips="1" connect="1" arrows="1" fold="1" page="1" pageScale="1" pageWidth="1169" pageHeight="827" math="0" shadow="0">
      <root>
        <mxCell id="0" />
        <mxCell id="1" parent="0" />
        <mxCell id="7OFj2rvWcQcrKB6aKj12-1" value="" style="rounded=1;fontFamily=Helvetica;fontSize=9;fontColor=none;strokeColor=#000000;fillColor=none;dashed=1;noLabel=1;" vertex="1" parent="1">
          <mxGeometry x="-510" y="752" width="390" height="218" as="geometry" />
        </mxCell>
        <mxCell id="7OFj2rvWcQcrKB6aKj12-2" value="" style="ellipse;html=1;shape=startState;fillColor=#000000;strokeColor=#ff0000;" vertex="1" parent="1">
          <mxGeometry x="485" y="40" width="30" height="30" as="geometry" />
        </mxCell>
        <mxCell id="7OFj2rvWcQcrKB6aKj12-3" value="" style="edgeStyle=orthogonalEdgeStyle;html=1;verticalAlign=bottom;endArrow=open;endSize=8;strokeColor=#000000;rounded=0;entryX=0.5;entryY=0;entryDx=0;entryDy=0;" edge="1" parent="1" source="7OFj2rvWcQcrKB6aKj12-2" target="7OFj2rvWcQcrKB6aKj12-4">
          <mxGeometry relative="1" as="geometry">
            <mxPoint x="390" y="130" as="targetPoint" />
          </mxGeometry>
        </mxCell>
        <mxCell id="7OFj2rvWcQcrKB6aKj12-4" value="homePage()" style="rounded=1;whiteSpace=wrap;html=1;arcSize=40;fontColor=#000000;fillColor=default;strokeColor=#000000;" vertex="1" parent="1">
          <mxGeometry x="440" y="130" width="120" height="40" as="geometry" />
        </mxCell>
        <mxCell id="7OFj2rvWcQcrKB6aKj12-6" value="&lt;p style=&quot;line-height: 1.1&quot;&gt;&lt;br&gt;&lt;/p&gt;" style="rhombus;whiteSpace=wrap;html=1;fillColor=none;strokeColor=#000000;rounded=0;fontFamily=Helvetica;fontSize=12;fontColor=#000000;" vertex="1" parent="1">
          <mxGeometry x="-200" y="520" width="100" height="70" as="geometry" />
        </mxCell>
        <mxCell id="7OFj2rvWcQcrKB6aKj12-7" value="encrypt" style="edgeStyle=orthogonalEdgeStyle;html=1;align=center;verticalAlign=middle;endArrow=open;endSize=8;strokeColor=#000000;rounded=0;labelBackgroundColor=default;fontFamily=Helvetica;fontSize=12;fontColor=#000000;shape=connector;fillColor=default;arcSize=40;entryX=0.5;entryY=0;entryDx=0;entryDy=0;" edge="1" parent="1" source="7OFj2rvWcQcrKB6aKj12-6" target="7OFj2rvWcQcrKB6aKj12-12">
          <mxGeometry x="-0.2174" y="-25" relative="1" as="geometry">
            <mxPoint x="-36" y="610" as="targetPoint" />
            <mxPoint as="offset" />
          </mxGeometry>
        </mxCell>
        <mxCell id="7OFj2rvWcQcrKB6aKj12-8" value="decrypt" style="edgeStyle=orthogonalEdgeStyle;html=1;align=center;verticalAlign=middle;endArrow=open;endSize=8;strokeColor=#000000;rounded=0;labelBackgroundColor=default;fontFamily=Helvetica;fontSize=12;fontColor=#000000;shape=connector;exitX=0;exitY=0.5;exitDx=0;exitDy=0;fillColor=default;arcSize=40;entryX=0.5;entryY=0;entryDx=0;entryDy=0;" edge="1" parent="1" source="7OFj2rvWcQcrKB6aKj12-6" target="7OFj2rvWcQcrKB6aKj12-10">
          <mxGeometry x="0.4779" y="20" relative="1" as="geometry">
            <mxPoint x="-260" y="610" as="targetPoint" />
            <mxPoint as="offset" />
          </mxGeometry>
        </mxCell>
        <mxCell id="7OFj2rvWcQcrKB6aKj12-9" value="" style="edgeStyle=orthogonalEdgeStyle;shape=connector;rounded=0;orthogonalLoop=1;jettySize=auto;html=1;labelBackgroundColor=default;fontFamily=Helvetica;fontSize=9;fontColor=#000000;endArrow=open;endSize=8;strokeColor=#000000;" edge="1" parent="1" source="7OFj2rvWcQcrKB6aKj12-10" target="7OFj2rvWcQcrKB6aKj12-14">
          <mxGeometry relative="1" as="geometry" />
        </mxCell>
        <mxCell id="7OFj2rvWcQcrKB6aKj12-10" value="user enters:&lt;br&gt;inputText &amp;amp; swiftValue" style="html=1;rounded=0;fontFamily=Helvetica;fontSize=9;fontColor=#000000;strokeColor=#000000;fillColor=none;" vertex="1" parent="1">
          <mxGeometry x="-455" y="622" width="100" height="40" as="geometry" />
        </mxCell>
        <mxCell id="7OFj2rvWcQcrKB6aKj12-11" value="" style="edgeStyle=orthogonalEdgeStyle;shape=connector;rounded=0;orthogonalLoop=1;jettySize=auto;html=1;labelBackgroundColor=default;fontFamily=Helvetica;fontSize=9;fontColor=#000000;endArrow=open;endSize=8;strokeColor=#000000;entryX=0.5;entryY=0;entryDx=0;entryDy=0;" edge="1" parent="1" source="7OFj2rvWcQcrKB6aKj12-12" target="7OFj2rvWcQcrKB6aKj12-37">
          <mxGeometry relative="1" as="geometry">
            <mxPoint x="80" y="691" as="targetPoint" />
          </mxGeometry>
        </mxCell>
        <mxCell id="7OFj2rvWcQcrKB6aKj12-12" value="user enters:&lt;br&gt;inputText &amp;amp; swiftValue" style="html=1;rounded=0;fontFamily=Helvetica;fontSize=9;fontColor=#000000;strokeColor=#000000;fillColor=none;" vertex="1" parent="1">
          <mxGeometry x="25" y="610" width="100" height="40" as="geometry" />
        </mxCell>
        <mxCell id="7OFj2rvWcQcrKB6aKj12-13" value="" style="edgeStyle=orthogonalEdgeStyle;shape=connector;rounded=0;orthogonalLoop=1;jettySize=auto;html=1;labelBackgroundColor=default;fontFamily=Helvetica;fontSize=9;fontColor=#000000;endArrow=open;endSize=8;strokeColor=#000000;entryX=0;entryY=0;entryDx=0;entryDy=0;" edge="1" parent="1" source="7OFj2rvWcQcrKB6aKj12-14" target="7OFj2rvWcQcrKB6aKj12-20">
          <mxGeometry relative="1" as="geometry" />
        </mxCell>
        <mxCell id="7OFj2rvWcQcrKB6aKj12-14" value="decrypt(String inputText, int swiftValue)" style="rounded=1;whiteSpace=wrap;html=1;arcSize=40;fontColor=#000000;fillColor=default;strokeColor=#000000;" vertex="1" parent="1">
          <mxGeometry x="-475" y="692" width="140" height="50" as="geometry" />
        </mxCell>
        <mxCell id="7OFj2rvWcQcrKB6aKj12-15" value="" style="edgeStyle=orthogonalEdgeStyle;shape=connector;rounded=0;orthogonalLoop=1;jettySize=auto;html=1;labelBackgroundColor=default;fontFamily=Helvetica;fontSize=9;fontColor=none;endArrow=open;endSize=8;strokeColor=#000000;entryX=0;entryY=0.5;entryDx=0;entryDy=0;" edge="1" parent="1" source="7OFj2rvWcQcrKB6aKj12-16" target="7OFj2rvWcQcrKB6aKj12-24">
          <mxGeometry relative="1" as="geometry">
            <mxPoint x="-435" y="920" as="targetPoint" />
          </mxGeometry>
        </mxCell>
        <mxCell id="7OFj2rvWcQcrKB6aKj12-16" value="int decryptedNumber = letterToNumber() - shiftValue" style="rounded=1;whiteSpace=wrap;html=1;arcSize=40;fontColor=#000000;fillColor=default;strokeColor=#000000;" vertex="1" parent="1">
          <mxGeometry x="-500" y="870" width="130" height="50" as="geometry" />
        </mxCell>
        <mxCell id="7OFj2rvWcQcrKB6aKj12-17" value="" style="html=1;rounded=0;fontFamily=Helvetica;fontSize=9;fontColor=none;strokeColor=#000000;fillColor=none;glass=0;" vertex="1" parent="1">
          <mxGeometry x="-445" y="742" width="20" height="20" as="geometry" />
        </mxCell>
        <mxCell id="7OFj2rvWcQcrKB6aKj12-18" value="" style="edgeStyle=orthogonalEdgeStyle;shape=connector;rounded=0;orthogonalLoop=1;jettySize=auto;html=1;labelBackgroundColor=default;fontFamily=Helvetica;fontSize=9;fontColor=none;endArrow=open;endSize=8;strokeColor=#000000;exitX=1;exitY=1;exitDx=0;exitDy=0;" edge="1" parent="1" source="7OFj2rvWcQcrKB6aKj12-19" target="7OFj2rvWcQcrKB6aKj12-16">
          <mxGeometry relative="1" as="geometry" />
        </mxCell>
        <mxCell id="7OFj2rvWcQcrKB6aKj12-19" value="" style="html=1;rounded=0;fontFamily=Helvetica;fontSize=9;fontColor=none;strokeColor=#000000;fillColor=none;glass=0;" vertex="1" parent="1">
          <mxGeometry x="-425" y="742" width="20" height="20" as="geometry" />
        </mxCell>
        <mxCell id="7OFj2rvWcQcrKB6aKj12-20" value="" style="html=1;rounded=0;fontFamily=Helvetica;fontSize=9;fontColor=none;strokeColor=#000000;fillColor=none;glass=0;" vertex="1" parent="1">
          <mxGeometry x="-405" y="742" width="20" height="20" as="geometry" />
        </mxCell>
        <mxCell id="7OFj2rvWcQcrKB6aKj12-21" value="" style="html=1;rounded=0;fontFamily=Helvetica;fontSize=9;fontColor=none;strokeColor=#000000;fillColor=none;glass=0;" vertex="1" parent="1">
          <mxGeometry x="-385" y="742" width="20" height="20" as="geometry" />
        </mxCell>
        <mxCell id="7OFj2rvWcQcrKB6aKj12-22" value="string cipherText = &quot;&quot;" style="text;align=center;fontStyle=1;verticalAlign=middle;spacingLeft=3;spacingRight=3;strokeColor=none;rotatable=0;points=[[0,0.5],[1,0.5]];portConstraint=eastwest;rounded=0;glass=0;fontFamily=Helvetica;fontSize=9;fontColor=none;fillColor=none;html=0;" vertex="1" parent="1">
          <mxGeometry x="-477.5" y="752" width="80" height="36" as="geometry" />
        </mxCell>
        <mxCell id="7OFj2rvWcQcrKB6aKj12-23" value="" style="edgeStyle=orthogonalEdgeStyle;shape=connector;rounded=0;orthogonalLoop=1;jettySize=auto;html=1;labelBackgroundColor=default;fontFamily=Helvetica;fontSize=9;fontColor=none;endArrow=open;endSize=8;strokeColor=#000000;" edge="1" parent="1" source="7OFj2rvWcQcrKB6aKj12-24" target="7OFj2rvWcQcrKB6aKj12-31">
          <mxGeometry relative="1" as="geometry" />
        </mxCell>
        <mxCell id="7OFj2rvWcQcrKB6aKj12-24" value="numberToLetter() += cipherText" style="rounded=1;whiteSpace=wrap;html=1;arcSize=40;fontColor=#000000;fillColor=default;strokeColor=#000000;" vertex="1" parent="1">
          <mxGeometry x="-317.5" y="889" width="130" height="40" as="geometry" />
        </mxCell>
        <mxCell id="7OFj2rvWcQcrKB6aKj12-25" value="" style="html=1;rounded=0;fontFamily=Helvetica;fontSize=9;fontColor=none;strokeColor=#000000;fillColor=none;glass=0;direction=south;rotation=90;flipV=0;flipH=1;" vertex="1" parent="1">
          <mxGeometry x="-130" y="820" width="20" height="20" as="geometry" />
        </mxCell>
        <mxCell id="7OFj2rvWcQcrKB6aKj12-26" value="" style="html=1;rounded=0;fontFamily=Helvetica;fontSize=9;fontColor=none;strokeColor=#000000;fillColor=none;glass=0;direction=south;rotation=90;flipV=0;flipH=1;" vertex="1" parent="1">
          <mxGeometry x="-130" y="860" width="20" height="20" as="geometry" />
        </mxCell>
        <mxCell id="7OFj2rvWcQcrKB6aKj12-27" value="" style="html=1;rounded=0;fontFamily=Helvetica;fontSize=9;fontColor=none;strokeColor=#000000;fillColor=none;glass=0;direction=south;rotation=90;flipV=0;flipH=1;" vertex="1" parent="1">
          <mxGeometry x="-130" y="840" width="20" height="20" as="geometry" />
        </mxCell>
        <mxCell id="7OFj2rvWcQcrKB6aKj12-28" value="" style="html=1;rounded=0;fontFamily=Helvetica;fontSize=9;fontColor=none;strokeColor=#000000;fillColor=none;glass=0;direction=south;rotation=90;flipV=0;flipH=1;" vertex="1" parent="1">
          <mxGeometry x="-130" y="800" width="20" height="20" as="geometry" />
        </mxCell>
        <mxCell id="7OFj2rvWcQcrKB6aKj12-29" value="" style="edgeStyle=orthogonalEdgeStyle;shape=connector;rounded=0;orthogonalLoop=1;jettySize=auto;html=1;labelBackgroundColor=default;fontFamily=Helvetica;fontSize=9;fontColor=none;endArrow=open;endSize=8;strokeColor=#000000;entryX=1;entryY=0.25;entryDx=0;entryDy=0;" edge="1" parent="1" source="7OFj2rvWcQcrKB6aKj12-31" target="7OFj2rvWcQcrKB6aKj12-25">
          <mxGeometry relative="1" as="geometry" />
        </mxCell>
        <mxCell id="7OFj2rvWcQcrKB6aKj12-30" value="" style="edgeStyle=orthogonalEdgeStyle;shape=connector;rounded=0;orthogonalLoop=1;jettySize=auto;html=1;labelBackgroundColor=default;fontFamily=Helvetica;fontSize=9;fontColor=none;endArrow=open;endSize=8;strokeColor=#000000;dashed=1;entryX=0.75;entryY=0;entryDx=0;entryDy=0;" edge="1" parent="1" source="7OFj2rvWcQcrKB6aKj12-31" target="7OFj2rvWcQcrKB6aKj12-16">
          <mxGeometry relative="1" as="geometry" />
        </mxCell>
        <mxCell id="7OFj2rvWcQcrKB6aKj12-31" value="return CipherText" style="rounded=1;whiteSpace=wrap;html=1;arcSize=40;fontColor=#000000;fillColor=default;strokeColor=#000000;" vertex="1" parent="1">
          <mxGeometry x="-280" y="820" width="105" height="30" as="geometry" />
        </mxCell>
        <mxCell id="7OFj2rvWcQcrKB6aKj12-32" value="" style="ellipse;html=1;shape=endState;fillColor=#000000;strokeColor=#ff0000;rounded=0;glass=0;fontFamily=Helvetica;fontSize=9;fontColor=none;" vertex="1" parent="1">
          <mxGeometry x="-70" y="820" width="30" height="30" as="geometry" />
        </mxCell>
        <mxCell id="7OFj2rvWcQcrKB6aKj12-33" value="" style="edgeStyle=orthogonalEdgeStyle;shape=connector;rounded=0;orthogonalLoop=1;jettySize=auto;html=1;labelBackgroundColor=default;fontFamily=Helvetica;fontSize=9;fontColor=none;endArrow=open;endSize=8;strokeColor=#000000;entryX=0;entryY=0.5;entryDx=0;entryDy=0;exitX=0;exitY=0.25;exitDx=0;exitDy=0;" edge="1" parent="1" source="7OFj2rvWcQcrKB6aKj12-25" target="7OFj2rvWcQcrKB6aKj12-32">
          <mxGeometry relative="1" as="geometry">
            <mxPoint x="-220" y="845" as="sourcePoint" />
            <mxPoint x="-170" y="845" as="targetPoint" />
          </mxGeometry>
        </mxCell>
        <mxCell id="7OFj2rvWcQcrKB6aKj12-34" value="if i &lt; inputText.length()" style="text;align=center;fontStyle=1;verticalAlign=middle;spacingLeft=3;spacingRight=3;strokeColor=none;rotatable=0;points=[[0,0.5],[1,0.5]];portConstraint=eastwest;rounded=0;glass=0;fontFamily=Helvetica;fontSize=9;fontColor=none;fillColor=none;html=0;" vertex="1" parent="1">
          <mxGeometry x="-397.5" y="824" width="80" height="26" as="geometry" />
        </mxCell>
        <mxCell id="7OFj2rvWcQcrKB6aKj12-35" value="" style="rounded=1;fontFamily=Helvetica;fontSize=9;fontColor=none;strokeColor=#000000;fillColor=none;dashed=1;noLabel=1;" vertex="1" parent="1">
          <mxGeometry x="-30" y="752" width="390" height="218" as="geometry" />
        </mxCell>
        <mxCell id="7OFj2rvWcQcrKB6aKj12-36" value="" style="edgeStyle=orthogonalEdgeStyle;shape=connector;rounded=0;orthogonalLoop=1;jettySize=auto;html=1;labelBackgroundColor=default;fontFamily=Helvetica;fontSize=9;fontColor=#000000;endArrow=open;endSize=8;strokeColor=#000000;entryX=0;entryY=0;entryDx=0;entryDy=0;" edge="1" parent="1" source="7OFj2rvWcQcrKB6aKj12-37" target="7OFj2rvWcQcrKB6aKj12-43">
          <mxGeometry relative="1" as="geometry" />
        </mxCell>
        <mxCell id="7OFj2rvWcQcrKB6aKj12-37" value="encrypt(String inputText, int swiftValue)" style="rounded=1;whiteSpace=wrap;html=1;arcSize=40;fontColor=#000000;fillColor=default;strokeColor=#000000;" vertex="1" parent="1">
          <mxGeometry x="5" y="692" width="140" height="50" as="geometry" />
        </mxCell>
        <mxCell id="7OFj2rvWcQcrKB6aKj12-38" value="" style="edgeStyle=orthogonalEdgeStyle;shape=connector;rounded=0;orthogonalLoop=1;jettySize=auto;html=1;labelBackgroundColor=default;fontFamily=Helvetica;fontSize=9;fontColor=none;endArrow=open;endSize=8;strokeColor=#000000;entryX=0;entryY=0.5;entryDx=0;entryDy=0;" edge="1" parent="1" source="7OFj2rvWcQcrKB6aKj12-39" target="7OFj2rvWcQcrKB6aKj12-46">
          <mxGeometry relative="1" as="geometry">
            <mxPoint x="45" y="920" as="targetPoint" />
          </mxGeometry>
        </mxCell>
        <mxCell id="7OFj2rvWcQcrKB6aKj12-39" value="int encryptedNumber = letterToNumber() + shiftValue" style="rounded=1;whiteSpace=wrap;html=1;arcSize=40;fontColor=#000000;fillColor=default;strokeColor=#000000;" vertex="1" parent="1">
          <mxGeometry x="-20" y="870" width="130" height="50" as="geometry" />
        </mxCell>
        <mxCell id="7OFj2rvWcQcrKB6aKj12-40" value="" style="html=1;rounded=0;fontFamily=Helvetica;fontSize=9;fontColor=none;strokeColor=#000000;fillColor=none;glass=0;" vertex="1" parent="1">
          <mxGeometry x="35" y="742" width="20" height="20" as="geometry" />
        </mxCell>
        <mxCell id="7OFj2rvWcQcrKB6aKj12-41" value="" style="edgeStyle=orthogonalEdgeStyle;shape=connector;rounded=0;orthogonalLoop=1;jettySize=auto;html=1;labelBackgroundColor=default;fontFamily=Helvetica;fontSize=9;fontColor=none;endArrow=open;endSize=8;strokeColor=#000000;exitX=1;exitY=1;exitDx=0;exitDy=0;" edge="1" parent="1" source="7OFj2rvWcQcrKB6aKj12-42" target="7OFj2rvWcQcrKB6aKj12-39">
          <mxGeometry relative="1" as="geometry" />
        </mxCell>
        <mxCell id="7OFj2rvWcQcrKB6aKj12-42" value="" style="html=1;rounded=0;fontFamily=Helvetica;fontSize=9;fontColor=none;strokeColor=#000000;fillColor=none;glass=0;" vertex="1" parent="1">
          <mxGeometry x="55" y="742" width="20" height="20" as="geometry" />
        </mxCell>
        <mxCell id="7OFj2rvWcQcrKB6aKj12-43" value="" style="html=1;rounded=0;fontFamily=Helvetica;fontSize=9;fontColor=none;strokeColor=#000000;fillColor=none;glass=0;" vertex="1" parent="1">
          <mxGeometry x="75" y="742" width="20" height="20" as="geometry" />
        </mxCell>
        <mxCell id="7OFj2rvWcQcrKB6aKj12-44" value="" style="html=1;rounded=0;fontFamily=Helvetica;fontSize=9;fontColor=none;strokeColor=#000000;fillColor=none;glass=0;" vertex="1" parent="1">
          <mxGeometry x="95" y="742" width="20" height="20" as="geometry" />
        </mxCell>
        <mxCell id="7OFj2rvWcQcrKB6aKj12-45" value="" style="edgeStyle=orthogonalEdgeStyle;shape=connector;rounded=0;orthogonalLoop=1;jettySize=auto;html=1;labelBackgroundColor=default;fontFamily=Helvetica;fontSize=9;fontColor=none;endArrow=open;endSize=8;strokeColor=#000000;" edge="1" parent="1" source="7OFj2rvWcQcrKB6aKj12-46" target="7OFj2rvWcQcrKB6aKj12-53">
          <mxGeometry relative="1" as="geometry" />
        </mxCell>
        <mxCell id="7OFj2rvWcQcrKB6aKj12-46" value="numberToLetter() += cipherText" style="rounded=1;whiteSpace=wrap;html=1;arcSize=40;fontColor=#000000;fillColor=default;strokeColor=#000000;" vertex="1" parent="1">
          <mxGeometry x="162.5" y="889" width="130" height="40" as="geometry" />
        </mxCell>
        <mxCell id="7OFj2rvWcQcrKB6aKj12-47" value="" style="html=1;rounded=0;fontFamily=Helvetica;fontSize=9;fontColor=none;strokeColor=#000000;fillColor=none;glass=0;direction=south;rotation=90;flipV=0;flipH=1;" vertex="1" parent="1">
          <mxGeometry x="350" y="820" width="20" height="20" as="geometry" />
        </mxCell>
        <mxCell id="7OFj2rvWcQcrKB6aKj12-48" value="" style="html=1;rounded=0;fontFamily=Helvetica;fontSize=9;fontColor=none;strokeColor=#000000;fillColor=none;glass=0;direction=south;rotation=90;flipV=0;flipH=1;" vertex="1" parent="1">
          <mxGeometry x="350" y="860" width="20" height="20" as="geometry" />
        </mxCell>
        <mxCell id="7OFj2rvWcQcrKB6aKj12-49" value="" style="html=1;rounded=0;fontFamily=Helvetica;fontSize=9;fontColor=none;strokeColor=#000000;fillColor=none;glass=0;direction=south;rotation=90;flipV=0;flipH=1;" vertex="1" parent="1">
          <mxGeometry x="350" y="840" width="20" height="20" as="geometry" />
        </mxCell>
        <mxCell id="7OFj2rvWcQcrKB6aKj12-50" value="" style="html=1;rounded=0;fontFamily=Helvetica;fontSize=9;fontColor=none;strokeColor=#000000;fillColor=none;glass=0;direction=south;rotation=90;flipV=0;flipH=1;" vertex="1" parent="1">
          <mxGeometry x="350" y="800" width="20" height="20" as="geometry" />
        </mxCell>
        <mxCell id="7OFj2rvWcQcrKB6aKj12-51" value="" style="edgeStyle=orthogonalEdgeStyle;shape=connector;rounded=0;orthogonalLoop=1;jettySize=auto;html=1;labelBackgroundColor=default;fontFamily=Helvetica;fontSize=9;fontColor=none;endArrow=open;endSize=8;strokeColor=#000000;entryX=1;entryY=0.25;entryDx=0;entryDy=0;" edge="1" parent="1" source="7OFj2rvWcQcrKB6aKj12-53" target="7OFj2rvWcQcrKB6aKj12-47">
          <mxGeometry relative="1" as="geometry" />
        </mxCell>
        <mxCell id="7OFj2rvWcQcrKB6aKj12-52" value="" style="edgeStyle=orthogonalEdgeStyle;shape=connector;rounded=0;orthogonalLoop=1;jettySize=auto;html=1;labelBackgroundColor=default;fontFamily=Helvetica;fontSize=9;fontColor=none;endArrow=open;endSize=8;strokeColor=#000000;dashed=1;entryX=0.75;entryY=0;entryDx=0;entryDy=0;" edge="1" parent="1" source="7OFj2rvWcQcrKB6aKj12-53" target="7OFj2rvWcQcrKB6aKj12-39">
          <mxGeometry relative="1" as="geometry" />
        </mxCell>
        <mxCell id="7OFj2rvWcQcrKB6aKj12-53" value="return CipherText" style="rounded=1;whiteSpace=wrap;html=1;arcSize=40;fontColor=#000000;fillColor=default;strokeColor=#000000;" vertex="1" parent="1">
          <mxGeometry x="175" y="835" width="105" height="30" as="geometry" />
        </mxCell>
        <mxCell id="7OFj2rvWcQcrKB6aKj12-54" value="" style="ellipse;html=1;shape=endState;fillColor=#000000;strokeColor=#ff0000;rounded=0;glass=0;fontFamily=Helvetica;fontSize=9;fontColor=none;" vertex="1" parent="1">
          <mxGeometry x="410" y="820" width="30" height="30" as="geometry" />
        </mxCell>
        <mxCell id="7OFj2rvWcQcrKB6aKj12-55" value="" style="edgeStyle=orthogonalEdgeStyle;shape=connector;rounded=0;orthogonalLoop=1;jettySize=auto;html=1;labelBackgroundColor=default;fontFamily=Helvetica;fontSize=9;fontColor=none;endArrow=open;endSize=8;strokeColor=#000000;entryX=0;entryY=0.5;entryDx=0;entryDy=0;exitX=0;exitY=0.25;exitDx=0;exitDy=0;" edge="1" parent="1" source="7OFj2rvWcQcrKB6aKj12-47" target="7OFj2rvWcQcrKB6aKj12-54">
          <mxGeometry relative="1" as="geometry">
            <mxPoint x="260" y="845" as="sourcePoint" />
            <mxPoint x="310" y="845" as="targetPoint" />
          </mxGeometry>
        </mxCell>
        <mxCell id="7OFj2rvWcQcrKB6aKj12-56" value="if i &lt; inputText.length()" style="text;align=center;fontStyle=1;verticalAlign=middle;spacingLeft=3;spacingRight=3;strokeColor=none;rotatable=0;points=[[0,0.5],[1,0.5]];portConstraint=eastwest;rounded=0;glass=0;fontFamily=Helvetica;fontSize=9;fontColor=none;fillColor=none;html=0;" vertex="1" parent="1">
          <mxGeometry x="82.5" y="824" width="80" height="26" as="geometry" />
        </mxCell>
        <mxCell id="7OFj2rvWcQcrKB6aKj12-57" value="&lt;span style=&quot;color: rgb(0, 0, 0); font-family: helvetica; font-size: 9px; font-style: normal; font-weight: 700; letter-spacing: normal; text-align: center; text-indent: 0px; text-transform: none; word-spacing: 0px; background-color: rgb(248, 249, 250); display: inline; float: none;&quot;&gt;string cipherText&lt;/span&gt;" style="text;whiteSpace=wrap;html=1;fontSize=9;fontFamily=Helvetica;fontColor=none;" vertex="1" parent="1">
          <mxGeometry x="-160" y="780" width="100" height="30" as="geometry" />
        </mxCell>
        <mxCell id="7OFj2rvWcQcrKB6aKj12-58" value="string cipherText = &quot;&quot;" style="text;align=center;fontStyle=1;verticalAlign=middle;spacingLeft=3;spacingRight=3;strokeColor=none;rotatable=0;points=[[0,0.5],[1,0.5]];portConstraint=eastwest;rounded=0;glass=0;fontFamily=Helvetica;fontSize=9;fontColor=none;fillColor=none;html=0;" vertex="1" parent="1">
          <mxGeometry x="2.5" y="752" width="80" height="36" as="geometry" />
        </mxCell>
        <mxCell id="7OFj2rvWcQcrKB6aKj12-59" value="&lt;span style=&quot;color: rgb(0, 0, 0); font-family: helvetica; font-size: 9px; font-style: normal; font-weight: 700; letter-spacing: normal; text-align: center; text-indent: 0px; text-transform: none; word-spacing: 0px; background-color: rgb(248, 249, 250); display: inline; float: none;&quot;&gt;string cipherText&lt;/span&gt;" style="text;whiteSpace=wrap;html=1;fontSize=9;fontFamily=Helvetica;fontColor=none;" vertex="1" parent="1">
          <mxGeometry x="310" y="770" width="100" height="30" as="geometry" />
        </mxCell>
        <mxCell id="7OFj2rvWcQcrKB6aKj12-60" value="FREDERIK HANSEN" style="text;align=center;fontStyle=1;verticalAlign=middle;spacingLeft=3;spacingRight=3;strokeColor=none;rotatable=0;points=[[0,0.5],[1,0.5]];portConstraint=eastwest;rounded=0;glass=0;fontFamily=Helvetica;fontSize=9;fontColor=none;fillColor=none;html=0;" vertex="1" parent="1">
          <mxGeometry x="220" y="40" width="80" height="26" as="geometry" />
        </mxCell>
        <mxCell id="7OFj2rvWcQcrKB6aKj12-61" value="FREDERIK HANSEN" style="text;align=center;fontStyle=1;verticalAlign=middle;spacingLeft=3;spacingRight=3;strokeColor=none;rotatable=0;points=[[0,0.5],[1,0.5]];portConstraint=eastwest;rounded=0;glass=0;fontFamily=Helvetica;fontSize=9;fontColor=none;fillColor=none;html=0;" vertex="1" parent="1">
          <mxGeometry x="655" y="40" width="80" height="26" as="geometry" />
        </mxCell>
        <mxCell id="7OFj2rvWcQcrKB6aKj12-73" value="" style="edgeStyle=orthogonalEdgeStyle;rounded=0;orthogonalLoop=1;jettySize=auto;html=1;" edge="1" parent="1" source="7OFj2rvWcQcrKB6aKj12-62" target="7OFj2rvWcQcrKB6aKj12-72">
          <mxGeometry relative="1" as="geometry" />
        </mxCell>
        <mxCell id="7OFj2rvWcQcrKB6aKj12-84" value="" style="edgeStyle=orthogonalEdgeStyle;rounded=0;orthogonalLoop=1;jettySize=auto;html=1;" edge="1" parent="1" source="7OFj2rvWcQcrKB6aKj12-62" target="7OFj2rvWcQcrKB6aKj12-80">
          <mxGeometry relative="1" as="geometry" />
        </mxCell>
        <mxCell id="7OFj2rvWcQcrKB6aKj12-62" value="&lt;p style=&quot;line-height: 1.1&quot;&gt;&lt;br&gt;&lt;/p&gt;" style="rhombus;whiteSpace=wrap;html=1;fillColor=none;strokeColor=#000000;rounded=0;fontFamily=Helvetica;fontSize=12;fontColor=#000000;" vertex="1" parent="1">
          <mxGeometry x="450" y="290" width="100" height="70" as="geometry" />
        </mxCell>
        <mxCell id="7OFj2rvWcQcrKB6aKj12-64" value="" style="endArrow=classic;html=1;rounded=0;exitX=0.5;exitY=1;exitDx=0;exitDy=0;entryX=0.5;entryY=0;entryDx=0;entryDy=0;" edge="1" parent="1" source="7OFj2rvWcQcrKB6aKj12-4" target="7OFj2rvWcQcrKB6aKj12-62">
          <mxGeometry width="50" height="50" relative="1" as="geometry">
            <mxPoint x="530" y="380" as="sourcePoint" />
            <mxPoint x="580" y="330" as="targetPoint" />
          </mxGeometry>
        </mxCell>
        <mxCell id="7OFj2rvWcQcrKB6aKj12-65" value="checkInput()" style="rounded=1;whiteSpace=wrap;html=1;arcSize=40;fontColor=#000000;fillColor=default;strokeColor=#000000;" vertex="1" parent="1">
          <mxGeometry x="430" y="414" width="140" height="50" as="geometry" />
        </mxCell>
        <mxCell id="7OFj2rvWcQcrKB6aKj12-70" value="" style="endArrow=classic;startArrow=classic;html=1;rounded=0;entryX=0.5;entryY=1;entryDx=0;entryDy=0;exitX=0.5;exitY=0;exitDx=0;exitDy=0;" edge="1" parent="1" source="7OFj2rvWcQcrKB6aKj12-65" target="7OFj2rvWcQcrKB6aKj12-62">
          <mxGeometry width="50" height="50" relative="1" as="geometry">
            <mxPoint x="490" y="500" as="sourcePoint" />
            <mxPoint x="540" y="450" as="targetPoint" />
          </mxGeometry>
        </mxCell>
        <mxCell id="7OFj2rvWcQcrKB6aKj12-75" value="" style="edgeStyle=orthogonalEdgeStyle;rounded=0;orthogonalLoop=1;jettySize=auto;html=1;" edge="1" parent="1" source="7OFj2rvWcQcrKB6aKj12-72" target="7OFj2rvWcQcrKB6aKj12-74">
          <mxGeometry relative="1" as="geometry" />
        </mxCell>
        <mxCell id="7OFj2rvWcQcrKB6aKj12-72" value="caesarPage()" style="rounded=1;whiteSpace=wrap;html=1;arcSize=40;fontColor=#000000;fillColor=default;strokeColor=#000000;" vertex="1" parent="1">
          <mxGeometry x="260" y="300" width="140" height="50" as="geometry" />
        </mxCell>
        <mxCell id="7OFj2rvWcQcrKB6aKj12-78" value="" style="edgeStyle=orthogonalEdgeStyle;rounded=0;orthogonalLoop=1;jettySize=auto;html=1;entryX=0;entryY=0;entryDx=50;entryDy=0;entryPerimeter=0;" edge="1" parent="1" source="7OFj2rvWcQcrKB6aKj12-74">
          <mxGeometry relative="1" as="geometry">
            <mxPoint x="330" y="505" as="targetPoint" />
          </mxGeometry>
        </mxCell>
        <mxCell id="7OFj2rvWcQcrKB6aKj12-74" value="&lt;p style=&quot;line-height: 1.1&quot;&gt;&lt;br&gt;&lt;/p&gt;" style="rhombus;whiteSpace=wrap;html=1;fillColor=none;strokeColor=#000000;rounded=0;fontFamily=Helvetica;fontSize=12;fontColor=#000000;" vertex="1" parent="1">
          <mxGeometry x="280" y="403.9999999999999" width="100" height="70" as="geometry" />
        </mxCell>
        <mxCell id="7OFj2rvWcQcrKB6aKj12-76" value="" style="endArrow=classic;startArrow=classic;html=1;rounded=0;exitX=1;exitY=0.5;exitDx=0;exitDy=0;entryX=0;entryY=0.5;entryDx=0;entryDy=0;" edge="1" parent="1" source="7OFj2rvWcQcrKB6aKj12-74" target="7OFj2rvWcQcrKB6aKj12-65">
          <mxGeometry width="50" height="50" relative="1" as="geometry">
            <mxPoint x="420" y="440" as="sourcePoint" />
            <mxPoint x="470" y="390" as="targetPoint" />
          </mxGeometry>
        </mxCell>
        <mxCell id="7OFj2rvWcQcrKB6aKj12-79" value="" style="edgeStyle=orthogonalEdgeStyle;rounded=0;orthogonalLoop=1;jettySize=auto;html=1;" edge="1" parent="1" source="7OFj2rvWcQcrKB6aKj12-80" target="7OFj2rvWcQcrKB6aKj12-82">
          <mxGeometry relative="1" as="geometry" />
        </mxCell>
        <mxCell id="7OFj2rvWcQcrKB6aKj12-80" value="vigenerePage()" style="rounded=1;whiteSpace=wrap;html=1;arcSize=40;fontColor=#000000;fillColor=default;strokeColor=#000000;" vertex="1" parent="1">
          <mxGeometry x="595" y="300" width="140" height="50" as="geometry" />
        </mxCell>
        <mxCell id="7OFj2rvWcQcrKB6aKj12-81" value="" style="edgeStyle=orthogonalEdgeStyle;rounded=0;orthogonalLoop=1;jettySize=auto;html=1;" edge="1" parent="1" source="7OFj2rvWcQcrKB6aKj12-82" target="7OFj2rvWcQcrKB6aKj12-103">
          <mxGeometry relative="1" as="geometry">
            <mxPoint x="665" y="500" as="targetPoint" />
          </mxGeometry>
        </mxCell>
        <mxCell id="7OFj2rvWcQcrKB6aKj12-82" value="&lt;p style=&quot;line-height: 1.1&quot;&gt;&lt;br&gt;&lt;/p&gt;" style="rhombus;whiteSpace=wrap;html=1;fillColor=none;strokeColor=#000000;rounded=0;fontFamily=Helvetica;fontSize=12;fontColor=#000000;" vertex="1" parent="1">
          <mxGeometry x="615" y="403.9999999999999" width="100" height="70" as="geometry" />
        </mxCell>
        <mxCell id="7OFj2rvWcQcrKB6aKj12-85" value="" style="endArrow=classic;startArrow=classic;html=1;rounded=0;entryX=0;entryY=0.5;entryDx=0;entryDy=0;" edge="1" parent="1" target="7OFj2rvWcQcrKB6aKj12-82">
          <mxGeometry width="50" height="50" relative="1" as="geometry">
            <mxPoint x="570" y="439" as="sourcePoint" />
            <mxPoint x="440" y="449" as="targetPoint" />
          </mxGeometry>
        </mxCell>
        <mxCell id="7OFj2rvWcQcrKB6aKj12-99" value="" style="verticalLabelPosition=bottom;verticalAlign=top;html=1;strokeWidth=2;shape=mxgraph.arrows2.arrow;dy=0;dx=0;notch=27.33;" vertex="1" parent="1">
          <mxGeometry x="280" y="505" width="100" height="70" as="geometry" />
        </mxCell>
        <mxCell id="7OFj2rvWcQcrKB6aKj12-100" value="&lt;span style=&quot;font-size: 9px&quot;&gt;String inputText&lt;/span&gt;&lt;br style=&quot;font-size: 9px&quot;&gt;&lt;span style=&quot;font-size: 9px&quot;&gt;Int swiftValue&lt;/span&gt;" style="text;html=1;strokeColor=none;fillColor=none;align=center;verticalAlign=middle;whiteSpace=wrap;rounded=0;" vertex="1" parent="1">
          <mxGeometry x="300" y="515" width="80" height="50" as="geometry" />
        </mxCell>
        <mxCell id="7OFj2rvWcQcrKB6aKj12-101" value="" style="html=1;rounded=0;fontFamily=Helvetica;fontSize=9;fontColor=none;strokeColor=#000000;fillColor=none;glass=0;direction=south;rotation=90;flipV=0;flipH=1;" vertex="1" parent="1">
          <mxGeometry x="315" y="575" width="20" height="20" as="geometry" />
        </mxCell>
        <mxCell id="7OFj2rvWcQcrKB6aKj12-102" value="" style="html=1;rounded=0;fontFamily=Helvetica;fontSize=9;fontColor=none;strokeColor=#000000;fillColor=none;glass=0;direction=south;rotation=90;flipV=0;flipH=1;" vertex="1" parent="1">
          <mxGeometry x="335" y="575" width="20" height="20" as="geometry" />
        </mxCell>
        <mxCell id="7OFj2rvWcQcrKB6aKj12-103" value="" style="verticalLabelPosition=bottom;verticalAlign=top;html=1;strokeWidth=2;shape=mxgraph.arrows2.arrow;dy=0;dx=0;notch=27.33;" vertex="1" parent="1">
          <mxGeometry x="615" y="505" width="100" height="70" as="geometry" />
        </mxCell>
        <mxCell id="7OFj2rvWcQcrKB6aKj12-104" value="&lt;span style=&quot;font-size: 9px&quot;&gt;String inputText&lt;/span&gt;&lt;br style=&quot;font-size: 9px&quot;&gt;&lt;span style=&quot;font-size: 9px&quot;&gt;Int swiftValue&lt;/span&gt;" style="text;html=1;strokeColor=none;fillColor=none;align=center;verticalAlign=middle;whiteSpace=wrap;rounded=0;" vertex="1" parent="1">
          <mxGeometry x="635" y="515" width="80" height="50" as="geometry" />
        </mxCell>
        <mxCell id="7OFj2rvWcQcrKB6aKj12-105" value="" style="html=1;rounded=0;fontFamily=Helvetica;fontSize=9;fontColor=none;strokeColor=#000000;fillColor=none;glass=0;direction=south;rotation=90;flipV=0;flipH=1;" vertex="1" parent="1">
          <mxGeometry x="650" y="575" width="20" height="20" as="geometry" />
        </mxCell>
        <mxCell id="7OFj2rvWcQcrKB6aKj12-106" value="" style="html=1;rounded=0;fontFamily=Helvetica;fontSize=9;fontColor=none;strokeColor=#000000;fillColor=none;glass=0;direction=south;rotation=90;flipV=0;flipH=1;" vertex="1" parent="1">
          <mxGeometry x="670" y="575" width="20" height="20" as="geometry" />
        </mxCell>
      </root>
    </mxGraphModel>
  </diagram>
</mxfile>
